<svg width="23" height="20" viewBox="0 0 23 20" fill="none" xmlns="http://www.w3.org/2000/svg">
<path d="M21.9583 9.71137C21.9583 14.45 17.3028 18.303 11.5417 18.303C5.7805 18.303 1.125 14.45 1.125 9.71137C1.125 4.97277 5.7805 1.14355 11.5417 1.14355C17.3028 1.14355 21.9583 4.97277 21.9583 9.71137Z" stroke="white" stroke-width="1.5" stroke-linecap="round" stroke-linejoin="round"/>
<path d="M11.924 7.21221C11.534 7.21221 11.2133 7.09955 10.962 6.87421C10.7193 6.64021 10.598 6.35421 10.598 6.01621C10.598 5.66955 10.7193 5.38355 10.962 5.15821C11.2133 4.92421 11.534 4.80721 11.924 4.80721C12.3053 4.80721 12.6173 4.92421 12.86 5.15821C13.1113 5.38355 13.237 5.66955 13.237 6.01621C13.237 6.35421 13.1113 6.64021 12.86 6.87421C12.6173 7.09955 12.3053 7.21221 11.924 7.21221ZM13.029 7.96621V15.2202H10.806V7.96621H13.029Z" fill="white"/>
</svg>
