<svg width="165" height="169" viewBox="0 0 165 169" fill="none" xmlns="http://www.w3.org/2000/svg">
<path fill-rule="evenodd" clip-rule="evenodd" d="M48.537 56.3712L32.0687 80.3684L81.7161 82.9231L98.1844 58.926L48.537 56.3712ZM30.2844 83.0928C30.1851 83.4336 30.2168 83.8055 30.3845 84.1308L52.4351 126.901C52.6723 127.361 53.1431 127.653 53.6607 127.662L103.616 128.527L81.5519 85.7309L30.2844 83.0928ZM106.117 127.24L134.391 86.0406C134.684 85.6138 134.718 85.0606 134.481 84.6005L112.815 42.5769L101.633 58.8707L109.211 73.5679C109.567 74.2582 109.296 75.1063 108.605 75.4622C107.915 75.8181 107.067 75.547 106.711 74.8567L99.8265 61.5036L84.0659 84.4696L106.117 127.24ZM110.448 41.056L60.4066 40.1899C59.9345 40.1818 59.4899 40.411 59.2227 40.8003L50.4038 53.651L99.4579 56.1753C99.6425 56.1848 99.8201 56.2302 99.9822 56.3062L110.448 41.056Z" fill="white" fill-opacity="0.13"/>
</svg>
