<svg width="30" height="29" viewBox="0 0 30 29" fill="none" xmlns="http://www.w3.org/2000/svg">
<path d="M12.5876 4.07621L3.92509 10.5974C2.95009 11.3259 2.32509 12.8652 2.53759 14.0167L4.20009 23.3697C4.50009 25.0382 6.20008 26.3894 8.00008 26.3894H22.0001C23.7876 26.3894 25.5001 25.0264 25.8001 23.3697L27.4626 14.0167C27.6626 12.8652 27.0376 11.3259 26.0751 10.5974L17.4126 4.08797C16.0751 3.07747 13.9126 3.07746 12.5876 4.07621Z" stroke="white" stroke-width="1.5" stroke-linecap="round" stroke-linejoin="round"/>
<path d="M15 18.9751C16.7259 18.9751 18.125 17.6599 18.125 16.0376C18.125 14.4153 16.7259 13.1001 15 13.1001C13.2741 13.1001 11.875 14.4153 11.875 16.0376C11.875 17.6599 13.2741 18.9751 15 18.9751Z" stroke="white" stroke-width="1.5" stroke-linecap="round" stroke-linejoin="round"/>
</svg>
