<svg width="103" height="110" viewBox="0 0 103 110" fill="none" xmlns="http://www.w3.org/2000/svg">
<path d="M57.4437 6.91747L48.7867 11.7548C43.205 1.76581 30.9362 -1.9954 21.3702 3.34986C11.8042 8.69512 8.57705 21.1152 14.1587 31.1042L5.50168 35.9415C0.740333 38.602 -0.882255 44.8468 1.89593 49.8187L32.2034 104.058C34.9816 109.029 41.1503 110.921 45.9117 108.26L97.8537 79.236C102.615 76.5754 104.238 70.3307 101.459 65.3588L71.1519 11.1199C68.3737 6.14805 62.205 4.25693 57.4437 6.91747ZM32.9182 44.3465C34.3073 46.8324 33.496 49.9548 31.1153 51.285C28.7346 52.6153 25.6503 51.6697 24.2612 49.1838L19.2099 40.144L27.8669 35.3066L32.9182 44.3465ZM26.4214 12.3897C31.1828 9.72914 37.3515 11.6203 40.1297 16.5921L22.8157 26.2668C20.0375 21.2949 21.6601 15.0502 26.4214 12.3897ZM58.8892 29.8344C60.2783 32.3204 59.467 35.4427 57.0863 36.773C54.7056 38.1033 51.6213 37.1577 50.2322 34.6718L45.1809 25.632L53.8379 20.7946L58.8892 29.8344Z" fill="white" fill-opacity="0.13"/>
</svg>
