<svg width="118" height="107" viewBox="0 0 118 107" fill="none" xmlns="http://www.w3.org/2000/svg">
<path d="M59.1794 88.1948C54.3537 90.6235 52.3538 96.3726 54.6815 100.997C57.0092 105.622 62.8181 107.441 67.6438 105.012C72.4695 102.584 74.5133 96.8125 72.1856 92.1877C69.8579 87.5628 64.0051 85.766 59.1794 88.1948ZM1.1161 38.3763C2.27995 40.6887 5.20633 41.5871 7.61918 40.3727L12.0062 38.1648L43.8605 62.1276L43.1013 75.3672C42.7344 82.6129 50.3951 87.3465 57.0633 83.9903L105.32 59.7026C107.733 58.4882 108.755 55.6026 107.591 53.2902C106.427 50.9778 103.501 50.0794 101.088 51.2937L52.8311 75.5815L53.4246 64.7439L86.1076 48.2944C89.3979 46.6385 91.4257 43.4574 91.6053 40.0999L93.5772 4.90867C93.6262 4.0853 93.4541 3.27107 93.078 2.54655C92.7019 1.82203 92.1349 1.21232 91.4329 0.777778C90.731 0.343228 89.9185 0.0988911 89.0759 0.0689511C88.2333 0.0390076 87.3897 0.224496 86.6287 0.607062L21.7014 33.2851L15.7361 28.7522C15.0223 28.2119 14.1584 27.8865 13.2456 27.814C12.3327 27.7415 11.4087 27.925 10.5816 28.3428L3.38699 31.9639C0.974145 33.1783 -0.0477545 36.0639 1.1161 38.3763ZM103.049 66.115C98.2236 68.5438 96.2236 74.2928 98.5513 78.9177C100.879 83.5426 106.688 85.3615 111.514 82.9327C116.339 80.5039 118.383 74.7327 116.055 70.1079C113.728 65.483 107.875 63.6862 103.049 66.115Z" fill="white" fill-opacity="0.13"/>
</svg>
