<svg width="23" height="30" viewBox="0 0 23 30" fill="none" xmlns="http://www.w3.org/2000/svg">
<path d="M16.5632 29.9996C17.6305 29.9996 18.4956 28.8935 18.4956 27.5291C18.4956 26.1647 17.6305 25.0586 16.5632 25.0586C15.496 25.0586 14.6309 26.1647 14.6309 27.5291C14.6309 28.8935 15.496 29.9996 16.5632 29.9996Z" fill="#D71313"/>
<path d="M7.72926 29.9996C8.79649 29.9996 9.66165 28.8935 9.66165 27.5291C9.66165 26.1647 8.79649 25.0586 7.72926 25.0586C6.66203 25.0586 5.79688 26.1647 5.79688 27.5291C5.79688 28.8935 6.66203 29.9996 7.72926 29.9996Z" fill="#D71313"/>
<path d="M3.96415 3.79752L3.74331 7.25622C3.69914 7.91973 4.1077 8.4703 4.62669 8.4703H21.5323C21.9961 8.4703 22.3826 8.01855 22.4157 7.42563C22.5592 4.92689 21.0685 2.89402 19.1141 2.89402H5.54319C5.43277 2.27286 5.21192 1.67994 4.86962 1.18584C4.31751 0.437632 3.54455 0 2.74951 0H0.828166C0.375435 0 0 0.479983 0 1.05879C0 1.63759 0.375435 2.11757 0.828166 2.11757H2.74951C3.09182 2.11757 3.41204 2.3011 3.64393 2.61167C3.87582 2.93637 3.98624 3.35988 3.96415 3.79752Z" fill="#D71313"/>
<path d="M21.2689 10.5879H4.33008C3.86631 10.5879 3.49088 11.0396 3.44671 11.6184L3.04919 17.7594C2.8946 20.1734 4.37425 22.2346 6.26247 22.2346H18.5415C20.1978 22.2346 21.6554 20.4981 21.7768 18.3806L22.1412 11.7879C22.1854 11.1385 21.7879 10.5879 21.2689 10.5879Z" fill="#D71313"/>
</svg>
