<svg width="27" height="29" viewBox="0 0 27 29" fill="none" xmlns="http://www.w3.org/2000/svg">
<g filter="url(#filter0_d_350_5041)">
<path d="M17.8491 20.3567C18.7414 20.3567 19.4648 19.6062 19.4648 18.6803C19.4648 17.7545 18.7414 17.0039 17.8491 17.0039C16.9568 17.0039 16.2334 17.7545 16.2334 18.6803C16.2334 19.6062 16.9568 20.3567 17.8491 20.3567Z" fill="white"/>
<path d="M10.4624 20.3567C11.3547 20.3567 12.0781 19.6062 12.0781 18.6803C12.0781 17.7545 11.3547 17.0039 10.4624 17.0039C9.57005 17.0039 8.84668 17.7545 8.84668 18.6803C8.84668 19.6062 9.57005 20.3567 10.4624 20.3567Z" fill="white"/>
<path d="M7.31447 2.57689L7.12982 4.92387C7.09289 5.3741 7.4345 5.7477 7.86842 5.7477H22.0034C22.3912 5.7477 22.7143 5.44116 22.742 5.03882C22.862 3.34325 21.6156 1.9638 19.9815 1.9638H8.63472C8.5424 1.5423 8.35775 1.13996 8.07154 0.804678C7.60991 0.296965 6.96364 0 6.2989 0H4.69244C4.31391 0 4 0.325703 4 0.718463C4 1.11122 4.31391 1.43693 4.69244 1.43693H6.2989C6.5851 1.43693 6.85285 1.56146 7.04673 1.77221C7.24061 1.99254 7.33294 2.27992 7.31447 2.57689Z" fill="white"/>
<path d="M21.782 7.18457H7.61932C7.23155 7.18457 6.91764 7.49111 6.88071 7.88387L6.54834 12.051C6.41909 13.6891 7.65625 15.0877 9.23501 15.0877H19.5016C20.8865 15.0877 22.1052 13.9094 22.2067 12.4725L22.5114 7.99883C22.5483 7.55817 22.216 7.18457 21.782 7.18457Z" fill="white"/>
</g>
<defs>
<filter id="filter0_d_350_5041" x="0" y="0" width="26.75" height="28.3564" filterUnits="userSpaceOnUse" color-interpolation-filters="sRGB">
<feFlood flood-opacity="0" result="BackgroundImageFix"/>
<feColorMatrix in="SourceAlpha" type="matrix" values="0 0 0 0 0 0 0 0 0 0 0 0 0 0 0 0 0 0 127 0" result="hardAlpha"/>
<feOffset dy="4"/>
<feGaussianBlur stdDeviation="2"/>
<feComposite in2="hardAlpha" operator="out"/>
<feColorMatrix type="matrix" values="0 0 0 0 0 0 0 0 0 0 0 0 0 0 0 0 0 0 0.25 0"/>
<feBlend mode="normal" in2="BackgroundImageFix" result="effect1_dropShadow_350_5041"/>
<feBlend mode="normal" in="SourceGraphic" in2="effect1_dropShadow_350_5041" result="shape"/>
</filter>
</defs>
</svg>
